<svg xmlns="http://www.w3.org/2000/svg" viewBox="0 0 500 500" width="500" height="500">
  <defs>
    <linearGradient id="bg" x1="0%" y1="0%" x2="100%" y2="100%"><stop offset="0%" stop-color="#140a0a"/><stop offset="100%" stop-color="#0a0a0f"/></linearGradient>
    <linearGradient id="tier_grad" x1="0%" y1="0%" x2="100%" y2="100%"><stop offset="0%" stop-color="#ffd700"/><stop offset="100%" stop-color="#ff6600"/></linearGradient>
    <filter id="g"><feDropShadow dx="0" dy="0" stdDeviation="10" flood-color="#e91e63" flood-opacity="0.6"/></filter>
  </defs>
  <rect width="500" height="500" fill="url(#bg)" rx="20"/>
  <rect x="15" y="15" width="470" height="470" fill="none" stroke="#880e4f" stroke-width="1.5" rx="15" opacity="0.3"/>
  <path d="M220 100 Q250 75 280 100 L285 150 Q250 160 215 150Z" fill="#3a0a2a"/><ellipse cx="250" cy="240" rx="55" ry="65" fill="#3a0a2a"/><circle cx="250" cy="125" r="18" fill="#2a001a"/><circle cx="242" cy="122" r="4" fill="#e91e63" opacity="0.8"/><circle cx="258" cy="122" r="4" fill="#e91e63" opacity="0.8"/><path d="M225 108 L240 95 L250 102 L260 95 L275 108 L268 118 L232 118Z" fill="#e91e63" opacity="0.6"/>
  <text x="250" y="340" text-anchor="middle" font-family="monospace" font-size="9" fill="#880e4f">CABAL OPERATIVE</text>
  <text x="250" y="370" text-anchor="middle" font-family="Arial,sans-serif" font-size="18" font-weight="bold" fill="#e91e63">MYSTIC</text>
</svg>